<?xml version="1.0" encoding="UTF-8" standalone="no"?>
<!-- Created with Inkscape (http://www.inkscape.org/) -->

<svg
   xmlns:dc="http://purl.org/dc/elements/1.1/"
   xmlns:cc="http://creativecommons.org/ns#"
   xmlns:rdf="http://www.w3.org/1999/02/22-rdf-syntax-ns#"
   xmlns:svg="http://www.w3.org/2000/svg"
   xmlns="http://www.w3.org/2000/svg"
   xmlns:sodipodi="http://sodipodi.sourceforge.net/DTD/sodipodi-0.dtd"
   xmlns:inkscape="http://www.inkscape.org/namespaces/inkscape"
   width="494.73264"
   height="203.13188"
   viewBox="0 0 130.89801 53.745312"
   version="1.1"
   id="svg5102"
   inkscape:version="0.92.3 (3ce5693, 2018-03-11)"
   sodipodi:docname="dessin.svg">
  <defs
     id="defs5096" />
  <sodipodi:namedview
     id="base"
     pagecolor="#ffffff"
     bordercolor="#666666"
     borderopacity="1.0"
     inkscape:pageopacity="0.0"
     inkscape:pageshadow="2"
     inkscape:zoom="0.98994949"
     inkscape:cx="97.26653"
     inkscape:cy="-56.55388"
     inkscape:document-units="mm"
     inkscape:current-layer="g5718"
     showgrid="false"
     units="px"
     fit-margin-top="0"
     fit-margin-left="0"
     fit-margin-right="0"
     fit-margin-bottom="0"
     inkscape:pagecheckerboard="false"
     inkscape:window-width="1920"
     inkscape:window-height="1011"
     inkscape:window-x="0"
     inkscape:window-y="45"
     inkscape:window-maximized="1" />
  <metadata
     id="metadata5099">
    <rdf:RDF>
      <cc:Work
         rdf:about="">
        <dc:format>image/svg+xml</dc:format>
        <dc:type
           rdf:resource="http://purl.org/dc/dcmitype/StillImage" />
        <dc:title></dc:title>
      </cc:Work>
    </rdf:RDF>
  </metadata>
  <g
     inkscape:label="Calque 1"
     inkscape:groupmode="layer"
     id="layer1"
     transform="translate(-47.231771,-25.889082)">
    <g
       aria-label="dev web"
       style="font-style:normal;font-weight:normal;font-size:10.58333302px;line-height:1.25;font-family:sans-serif;letter-spacing:0px;word-spacing:0px;fill:#000000;fill-opacity:1;stroke:none;stroke-width:0.26458332"
       id="text5106">
      <g
         id="g5718"
         transform="rotate(90,57.390788,52.761737)">
        <path
           inkscape:connector-curvature="0"
           id="path5698"
           style="stroke-width:0.32623118"
           d="m 35.723814,50.276773 v -3.861252 h 1.172392 v 9.914369 h -1.172392 v -1.070446 q -0.369559,0.63717 -0.93664,0.949384 -0.56071,0.305841 -1.350802,0.305841 -1.293455,0 -2.109034,-1.032216 -0.809205,-1.032215 -0.809205,-2.714345 0,-1.682129 0.809205,-2.714345 0.815579,-1.032216 2.109034,-1.032216 0.790092,0 1.350802,0.312214 0.567081,0.305842 0.93664,0.943012 z m -3.995058,2.491335 q 0,1.293456 0.528851,2.032573 0.535223,0.732746 1.465492,0.732746 0.930269,0 1.465492,-0.732746 0.535223,-0.739117 0.535223,-2.032573 0,-1.293455 -0.535223,-2.026201 -0.535223,-0.739118 -1.465492,-0.739118 -0.930269,0 -1.465492,0.739118 -0.52885,0.732746 -0.528851,2.026201 z" />
        <path
           inkscape:connector-curvature="0"
           id="path5700"
           style="stroke-width:0.32623118"
           d="m 46.486892,52.46864 v 0.573454 h -5.39046 q 0.07646,1.210622 0.726375,1.847793 0.656285,0.630799 1.822305,0.630799 0.675402,0 1.3062,-0.165665 0.637171,-0.165663 1.261598,-0.496993 v 1.108677 q -0.630799,0.267611 -1.293457,0.407789 -0.662657,0.140177 -1.344429,0.140177 -1.707616,0 -2.707973,-0.993985 -0.993986,-0.993986 -0.993986,-2.688858 0,-1.752219 0.943012,-2.778063 0.949384,-1.032216 2.555053,-1.032216 1.440004,0 2.274697,0.930269 0.841065,0.923896 0.841065,2.516822 z m -1.172393,-0.344072 q -0.01274,-0.962127 -0.541595,-1.535581 -0.522479,-0.573453 -1.389031,-0.573453 -0.981242,0 -1.573811,0.554338 -0.586196,0.554339 -0.6754,1.561068 z" />
        <path
           inkscape:connector-curvature="0"
           id="path5702"
           style="fill:#ff0000;fill-opacity:0.58659219;stroke-width:0.9288246"
           d="m 42.765887,42.602716 h 3.537518 l 6.349387,17.052638 6.349386,-17.052638 h 3.537515 l -7.619264,20.318038 h -4.535278 z" />
        <path
           inkscape:connector-curvature="0"
           id="path5704"
           style="stroke-width:0.32623118"
           d="m 57.337266,49.193584 h 1.172393 l 1.465492,5.568868 1.459119,-5.568868 h 1.38266 l 1.465492,5.568868 1.459119,-5.568868 h 1.172393 l -1.866908,7.136306 h -1.38266 l -1.53558,-5.849224 -1.541952,5.849224 h -1.38266 z" />
        <path
           inkscape:connector-curvature="0"
           id="path5706"
           style="stroke-width:0.32623118"
           d="m 74.905325,52.46864 v 0.573454 h -5.39046 q 0.07646,1.210623 0.726375,1.847793 0.656285,0.630799 1.822305,0.630799 0.675402,0 1.3062,-0.165665 0.637171,-0.165663 1.261598,-0.496993 v 1.108677 q -0.630799,0.267611 -1.293457,0.407789 -0.662657,0.140177 -1.344429,0.140177 -1.707616,0 -2.707973,-0.993985 -0.993986,-0.993986 -0.993986,-2.688858 0,-1.752219 0.943012,-2.778063 0.949384,-1.032216 2.555053,-1.032216 1.440004,0 2.274697,0.930269 0.841065,0.923896 0.841065,2.516822 z m -1.172393,-0.344072 q -0.01274,-0.962127 -0.541595,-1.53558 -0.522479,-0.573454 -1.389031,-0.573454 -0.981242,0 -1.573811,0.554338 -0.586196,0.554339 -0.6754,1.561068 z" />
        <path
           inkscape:connector-curvature="0"
           id="path5708"
           style="stroke-width:0.32623118"
           d="m 83.046448,52.76811 q 0,-1.293455 -0.535223,-2.026202 -0.528852,-0.739116 -1.45912,-0.739116 -0.930269,0 -1.465492,0.739116 -0.528852,0.732747 -0.528852,2.026202 0,1.293456 0.528852,2.032572 0.535223,0.732747 1.465492,0.732747 0.930268,0 1.45912,-0.732747 0.535223,-0.739116 0.535223,-2.032572 z m -3.988687,-2.491335 q 0.36956,-0.63717 0.930269,-0.943012 0.567081,-0.312215 1.3508,-0.312215 1.299829,0 2.109034,1.032217 0.815579,1.032216 0.815579,2.714345 0,1.68213 -0.815579,2.714345 -0.809205,1.032215 -2.109034,1.032215 -0.783719,0 -1.3508,-0.30584 -0.560709,-0.312215 -0.930269,-0.949384 v 1.070446 h -1.178765 v -9.914369 h 1.178765 z" />
      </g>
      <path
         inkscape:connector-curvature="0"
         id="path5724"
         style="font-style:normal;font-weight:normal;font-size:medium;line-height:1.25;font-family:sans-serif;letter-spacing:0px;word-spacing:0px;fill:#ff0000;fill-opacity:0.58823529;stroke:none;stroke-width:0.1560557"
         d="M 76.092785,38.522717 H 78.05116 L 72.060834,57.910642 H 70.102456 Z" />
      <g
         id="g5805"
         transform="matrix(1.1661886,0,0,1.1661886,-13.083748,-8.2318656)"
         style="fill:#1a1a1a">
        <path
           d="m 84.878891,46.168044 q 0.356567,-0.640788 0.852661,-0.945679 0.496094,-0.304891 1.167887,-0.304891 0.904338,0 1.395264,0.63562 0.490926,0.630453 0.490926,1.79834 v 3.493327 H 87.829615 V 47.38244 q 0,-0.83199 -0.294556,-1.235067 -0.294555,-0.403076 -0.89917,-0.403076 -0.738972,0 -1.167887,0.490926 -0.428914,0.490926 -0.428914,1.33842 v 3.271118 H 84.083074 V 47.38244 q 0,-0.837158 -0.294556,-1.235067 -0.294556,-0.403076 -0.909505,-0.403076 -0.728638,0 -1.157552,0.496094 -0.428914,0.490926 -0.428914,1.333252 v 3.271118 h -0.956014 v -5.78776 h 0.956014 v 0.89917 q 0.325561,-0.532268 0.780314,-0.785482 0.454752,-0.253215 1.080037,-0.253215 0.630452,0 1.069702,0.320394 0.444417,0.320394 0.656291,0.930176 z"
           style="font-style:normal;font-weight:normal;font-size:medium;line-height:1.25;font-family:sans-serif;letter-spacing:0px;word-spacing:0px;fill:#1a1a1a;fill-opacity:0.58823529;stroke:none;stroke-width:0.07000434"
           id="path5726"
           inkscape:connector-curvature="0" />
        <g
           id="g5787"
           style="fill:#1a1a1a">
          <path
             inkscape:connector-curvature="0"
             id="path5728"
             style="font-style:normal;font-weight:normal;font-size:medium;line-height:1.25;font-family:sans-serif;letter-spacing:0px;word-spacing:0px;fill:#1a1a1a;fill-opacity:0.58823529;stroke:none;stroke-width:0.07000434"
             d="m 93.317652,47.935378 q -1.152385,0 -1.596802,0.26355 -0.444417,0.263549 -0.444417,0.89917 0,0.506429 0.330729,0.806152 0.335897,0.294556 0.909505,0.294556 0.790649,0 1.266073,-0.558106 0.48059,-0.563273 0.48059,-1.493449 v -0.211873 z m 1.896525,-0.392741 v 3.302124 H 94.26333 v -0.878499 q -0.325561,0.527099 -0.81132,0.780314 -0.485758,0.248047 -1.188558,0.248047 -0.888834,0 -1.415934,-0.496094 -0.521932,-0.501262 -0.521932,-1.33842 0,-0.976684 0.651123,-1.472778 0.656291,-0.496094 1.953369,-0.496094 h 1.333252 v -0.09302 q 0,-0.656291 -0.434082,-1.012858 -0.428914,-0.361735 -1.209228,-0.361735 -0.496094,0 -0.966349,0.118855 -0.470256,0.118856 -0.904338,0.356568 v -0.8785 q 0.521932,-0.201538 1.012858,-0.299723 0.490926,-0.103353 0.956014,-0.103353 1.255737,0 1.875854,0.651123 0.620118,0.651123 0.620118,1.97404 z" />
          <path
             inkscape:connector-curvature="0"
             id="path5730"
             style="font-style:normal;font-weight:normal;font-size:medium;line-height:1.25;font-family:sans-serif;letter-spacing:0px;word-spacing:0px;fill:#1a1a1a;fill-opacity:0.58823529;stroke:none;stroke-width:0.07000434"
             d="m 98.118391,43.41369 v 1.643311 h 1.958539 v 0.738973 h -1.958539 v 3.141927 q 0,0.707967 0.191203,0.909505 0.19637,0.201538 0.790649,0.201538 h 0.976687 v 0.795817 h -0.976687 q -1.100708,0 -1.519287,-0.408244 -0.418579,-0.413411 -0.418579,-1.498616 v -3.141927 h -0.697632 v -0.738973 h 0.697632 V 43.41369 Z" />
          <path
             inkscape:connector-curvature="0"
             id="path5732"
             style="font-style:normal;font-weight:normal;font-size:medium;line-height:1.25;font-family:sans-serif;letter-spacing:0px;word-spacing:0px;fill:#1a1a1a;fill-opacity:0.58823529;stroke:none;stroke-width:0.07000434"
             d="m 102.27318,43.41369 v 1.643311 h 1.95853 v 0.738973 h -1.95853 v 3.141927 q 0,0.707967 0.1912,0.909505 0.19637,0.201538 0.79065,0.201538 h 0.97668 v 0.795817 h -0.97668 q -1.10071,0 -1.51929,-0.408244 -0.41858,-0.413411 -0.41858,-1.498616 v -3.141927 h -0.69763 v -0.738973 h 0.69763 V 43.41369 Z" />
          <path
             inkscape:connector-curvature="0"
             id="path5734"
             style="font-style:normal;font-weight:normal;font-size:medium;line-height:1.25;font-family:sans-serif;letter-spacing:0px;word-spacing:0px;fill:#1a1a1a;fill-opacity:0.58823529;stroke:none;stroke-width:0.07000434"
             d="m 110.29853,47.351434 v 3.493327 h -0.95085 V 47.38244 q 0,-0.821655 -0.32039,-1.229899 -0.3204,-0.408244 -0.96118,-0.408244 -0.76998,0 -1.2144,0.490926 -0.44442,0.490926 -0.44442,1.33842 v 3.271118 h -0.95601 v -8.040853 h 0.95601 v 3.152263 q 0.34107,-0.521932 0.80099,-0.780315 0.46509,-0.258382 1.0697,-0.258382 0.99735,0 1.50895,0.620117 0.5116,0.61495 0.5116,1.813843 z" />
          <path
             inkscape:connector-curvature="0"
             id="path5736"
             style="font-style:normal;font-weight:normal;font-size:medium;line-height:1.25;font-family:sans-serif;letter-spacing:0px;word-spacing:0px;fill:#1a1a1a;fill-opacity:0.58823529;stroke:none;stroke-width:0.07000434"
             d="m 112.20539,45.057001 h 0.95084 v 5.78776 h -0.95084 z m 0,-2.253093 h 0.95084 v 1.204061 h -0.95084 z" />
          <path
             inkscape:connector-curvature="0"
             id="path5738"
             style="font-style:normal;font-weight:normal;font-size:medium;line-height:1.25;font-family:sans-serif;letter-spacing:0px;word-spacing:0px;fill:#1a1a1a;fill-opacity:0.58823529;stroke:none;stroke-width:0.07000434"
             d="m 117.77094,47.935378 q -1.15239,0 -1.5968,0.26355 -0.44442,0.263549 -0.44442,0.89917 0,0.506429 0.33073,0.806152 0.3359,0.294556 0.9095,0.294556 0.79065,0 1.26608,-0.558106 0.48059,-0.563273 0.48059,-1.493449 v -0.211873 z m 1.89652,-0.392741 v 3.302124 h -0.95084 v -0.878499 q -0.32556,0.527099 -0.81132,0.780314 -0.48576,0.248047 -1.18856,0.248047 -0.88884,0 -1.41593,-0.496094 -0.52194,-0.501262 -0.52194,-1.33842 0,-0.976684 0.65113,-1.472778 0.65629,-0.496094 1.95337,-0.496094 h 1.33325 v -0.09302 q 0,-0.656291 -0.43408,-1.012858 -0.42892,-0.361735 -1.20923,-0.361735 -0.4961,0 -0.96635,0.118855 -0.47026,0.118856 -0.90434,0.356568 v -0.8785 q 0.52193,-0.201538 1.01286,-0.299723 0.49092,-0.103353 0.95601,-0.103353 1.25574,0 1.87586,0.651123 0.62011,0.651123 0.62011,1.97404 z" />
          <path
             inkscape:connector-curvature="0"
             id="path5740"
             style="font-style:normal;font-weight:normal;font-size:medium;line-height:1.25;font-family:sans-serif;letter-spacing:0px;word-spacing:0px;fill:#1a1a1a;fill-opacity:0.58823529;stroke:none;stroke-width:0.07000434"
             d="m 125.32086,45.227533 v 0.89917 q -0.40307,-0.206706 -0.83715,-0.310059 -0.43409,-0.103353 -0.89917,-0.103353 -0.70797,0 -1.06454,0.217041 -0.3514,0.217041 -0.3514,0.651123 0,0.33073 0.25322,0.521932 0.25321,0.186035 1.01802,0.356568 l 0.32556,0.07235 q 1.01286,0.217041 1.43661,0.614949 0.42891,0.392741 0.42891,1.100708 0,0.806153 -0.64078,1.276408 -0.63563,0.470256 -1.75184,0.470256 -0.46508,0 -0.97151,-0.09302 -0.50126,-0.08785 -1.05937,-0.268717 v -0.981853 q 0.5271,0.273885 1.0387,0.413412 0.51159,0.134359 1.01285,0.134359 0.6718,0 1.03353,-0.227377 0.36174,-0.232544 0.36174,-0.651123 0,-0.387573 -0.26355,-0.594279 -0.25838,-0.206705 -1.14205,-0.397908 l -0.33073,-0.07751 q -0.88367,-0.186035 -1.27641,-0.568441 -0.39274,-0.387573 -0.39274,-1.059366 0,-0.816488 0.57878,-1.260905 0.57877,-0.444418 1.64331,-0.444418 0.5271,0 0.99219,0.07751 0.46508,0.07752 0.85782,0.232544 z" />
          <path
             inkscape:connector-curvature="0"
             id="path5742"
             style="font-style:normal;font-weight:normal;font-size:medium;line-height:1.25;font-family:sans-serif;letter-spacing:0px;word-spacing:0px;fill:#1a1a1a;fill-opacity:0.58823529;stroke:none;stroke-width:0.07000434"
             d="m 134.32807,47.883701 q 0,-1.033528 -0.42892,-1.601969 -0.42374,-0.568441 -1.19372,-0.568441 -0.76481,0 -1.19373,0.568441 -0.42374,0.568441 -0.42374,1.601969 0,1.028361 0.42374,1.596802 0.42892,0.568441 1.19373,0.568441 0.76998,0 1.19372,-0.568441 0.42892,-0.568441 0.42892,-1.596802 z m 0.95084,2.242758 q 0,1.477945 -0.65629,2.196248 -0.65629,0.72347 -2.01021,0.72347 -0.50126,0 -0.94568,-0.07751 -0.44442,-0.07235 -0.86299,-0.227376 v -0.925008 q 0.41857,0.227376 0.82682,0.335897 0.40824,0.10852 0.83199,0.10852 0.93534,0 1.40043,-0.490926 0.46509,-0.485758 0.46509,-1.472778 V 49.82674 q -0.29456,0.511597 -0.75448,0.764811 -0.45992,0.253215 -1.10071,0.253215 -1.06453,0 -1.71565,-0.81132 -0.65113,-0.81132 -0.65113,-2.14974 0,-1.343587 0.65113,-2.154907 0.65112,-0.81132 1.71565,-0.81132 0.64079,0 1.10071,0.253215 0.45992,0.253214 0.75448,0.764811 v -0.878499 h 0.95084 z" />
          <path
             inkscape:connector-curvature="0"
             id="path5744"
             style="font-style:normal;font-weight:normal;font-size:medium;line-height:1.25;font-family:sans-serif;letter-spacing:0px;word-spacing:0px;fill:#1a1a1a;fill-opacity:0.58823529;stroke:none;stroke-width:0.07000434"
             d="m 139.48021,45.723627 q -0.76482,0 -1.20923,0.599446 -0.44442,0.594279 -0.44442,1.632975 0,1.038697 0.43925,1.638143 0.44442,0.594279 1.2144,0.594279 0.75964,0 1.20406,-0.599446 0.44441,-0.599447 0.44441,-1.632976 0,-1.028361 -0.44441,-1.627807 -0.44442,-0.604614 -1.20406,-0.604614 z m 0,-0.806153 q 1.24023,0 1.9482,0.806153 0.70796,0.806152 0.70796,2.232421 0,1.421102 -0.70796,2.232422 -0.70797,0.806153 -1.9482,0.806153 -1.24541,0 -1.95337,-0.806153 -0.7028,-0.81132 -0.7028,-2.232422 0,-1.426269 0.7028,-2.232421 0.70796,-0.806153 1.95337,-0.806153 z" />
          <path
             inkscape:connector-curvature="0"
             id="path5746"
             style="font-style:normal;font-weight:normal;font-size:medium;line-height:1.25;font-family:sans-serif;letter-spacing:0px;word-spacing:0px;fill:#1a1a1a;fill-opacity:0.58823529;stroke:none;stroke-width:0.07000434"
             d="M 143.60915,48.560663 V 45.057001 H 144.56 v 3.467488 q 0,0.821655 0.32039,1.235067 0.3204,0.408244 0.96119,0.408244 0.76997,0 1.21439,-0.490926 0.44959,-0.490927 0.44959,-1.33842 v -3.281453 h 0.95084 v 5.78776 h -0.95084 v -0.888835 q -0.34624,0.5271 -0.80616,0.785482 -0.45475,0.253215 -1.05936,0.253215 -0.99736,0 -1.51412,-0.620118 -0.51677,-0.620117 -0.51677,-1.813842 z m 2.39262,-3.643189 z" />
          <path
             inkscape:connector-curvature="0"
             id="path5748"
             style="font-style:normal;font-weight:normal;font-size:medium;line-height:1.25;font-family:sans-serif;letter-spacing:0px;word-spacing:0px;fill:#1a1a1a;fill-opacity:0.58823529;stroke:none;stroke-width:0.07000434"
             d="m 154.23383,45.9355 v -3.131592 h 0.95084 v 8.040853 h -0.95084 v -0.868164 q -0.29973,0.516764 -0.75965,0.769979 -0.45475,0.248047 -1.09554,0.248047 -1.04903,0 -1.71049,-0.837159 -0.65629,-0.837158 -0.65629,-2.201416 0,-1.364257 0.65629,-2.201416 0.66146,-0.837158 1.71049,-0.837158 0.64079,0 1.09554,0.253215 0.45992,0.248047 0.75965,0.764811 z m -3.24012,2.020548 q 0,1.049032 0.42892,1.648479 0.43408,0.594279 1.18856,0.594279 0.75447,0 1.18855,-0.594279 0.43409,-0.599447 0.43409,-1.648479 0,-1.049031 -0.43409,-1.64331 -0.43408,-0.599447 -1.18855,-0.599447 -0.75448,0 -1.18856,0.599447 -0.42892,0.594279 -0.42892,1.64331 z" />
          <path
             inkscape:connector-curvature="0"
             id="path5750"
             style="font-style:normal;font-weight:normal;font-size:medium;line-height:1.25;font-family:sans-serif;letter-spacing:0px;word-spacing:0px;fill:#1a1a1a;fill-opacity:0.58823529;stroke:none;stroke-width:0.07000434"
             d="m 157.14321,45.057001 h 0.95085 v 5.891113 q 0,1.105875 -0.42375,1.601969 -0.41858,0.496094 -1.35392,0.496094 h -0.36173 v -0.806152 h 0.25321 q 0.5426,0 0.73897,-0.253215 0.19637,-0.248047 0.19637,-1.038696 z m 0,-2.253093 h 0.95085 v 1.204061 h -0.95085 z" />
          <path
             inkscape:connector-curvature="0"
             id="path5752"
             style="font-style:normal;font-weight:normal;font-size:medium;line-height:1.25;font-family:sans-serif;letter-spacing:0px;word-spacing:0px;fill:#1a1a1a;fill-opacity:0.58823529;stroke:none;stroke-width:0.07000434"
             d="m 160.07843,45.057001 h 0.95085 v 5.78776 h -0.95085 z m 0,-2.253093 h 0.95085 v 1.204061 h -0.95085 z" />
          <path
             inkscape:connector-curvature="0"
             id="path5754"
             style="font-style:normal;font-weight:normal;font-size:medium;line-height:1.25;font-family:sans-serif;letter-spacing:0px;word-spacing:0px;fill:#1a1a1a;fill-opacity:0.58823529;stroke:none;stroke-width:0.07000434"
             d="m 163.01365,42.803908 h 0.95085 v 8.040853 h -0.95085 z" />
        </g>
      </g>
    </g>
  </g>
</svg>
